<svg width="40" height="45" viewBox="0 0 134 103" fill="none" xmlns="http://www.w3.org/2000/svg">
<path d="M86.4776 40.0661C85.9559 39.2392 80.8065 37.1242 80.8065 37.1242C81.7021 36.6843 82.3142 36.5933 82.3142 34.7743C82.3142 32.7899 82.3038 32.1284 80.9126 32.1284H76.1927C76.1736 32.0888 76.1527 32.0474 76.1336 32.0061C73.0867 25.6791 72.6781 24.08 68.1339 21.927C62.0384 19.0446 50.611 18.8991 46.1311 18.8991C41.6513 18.8991 30.2239 19.0446 24.1336 21.927C19.5842 24.0767 19.6973 25.183 16.1339 32.0061C16.1339 32.0243 16.0974 32.0722 16.0643 32.1284H11.3393C9.95846 32.1284 9.94803 32.7899 9.94803 34.7743C9.94803 36.5933 10.5602 36.6843 11.4558 37.1242C11.4558 37.1242 6.48032 39.4046 5.78469 40.0661C5.08906 40.7275 4.39343 45.3578 4.39343 53.2954C4.39343 61.233 5.08906 69.1706 5.08906 69.1706H7.16551C7.16551 71.4858 7.52376 71.8165 8.5672 71.8165H22.4798C23.5232 71.8165 23.871 71.4858 23.871 69.1706H68.3912C68.3912 71.4858 68.7391 71.8165 69.7825 71.8165H84.0429C84.7385 71.8165 85.0863 71.3204 85.0863 69.1706H87.1732C87.1732 69.1706 87.8688 61.0677 87.8688 53.2954C87.8688 45.5232 86.9993 40.8929 86.4776 40.0661ZM23.3945 47.4976C20.2272 47.8269 17.0437 47.9958 13.8575 48.0037C10.3063 48.0037 10.1845 48.2203 9.93411 46.1119C9.83991 45.1468 9.86969 44.1745 10.0228 43.2163L10.1324 42.7119H10.6541C12.741 42.7119 14.7009 42.7963 18.4017 43.8331C20.2839 44.3702 22.0543 45.2127 23.6345 46.3235C24.3927 46.8461 24.5667 47.3422 24.5667 47.3422L23.3945 47.4976ZM66.3774 59.4041L65.6087 61.233H26.6535C26.6535 61.233 26.7214 61.1322 25.784 59.3842C25.0884 58.0911 25.9579 57.2642 27.3335 56.7946C29.9978 55.8818 37.7836 53.2954 46.1311 53.2954C54.4787 53.2954 62.4193 55.5246 65.0001 56.7946C65.9565 57.2642 67.1443 57.595 66.3774 59.414V59.4041ZM21.6833 36.8265C21.1215 36.8573 20.5585 36.8612 19.9964 36.8381C20.4503 36.0708 20.7024 35.2158 21.1459 34.3229C22.5372 31.5116 24.1284 28.33 26.9614 26.9888C31.0551 25.0507 39.5401 24.1776 46.1311 24.1776C52.7222 24.1776 61.2071 25.0441 65.3009 26.9888C68.1339 28.33 69.7182 31.5133 71.1164 34.3229C71.5633 35.2241 71.812 36.0857 72.2781 36.8579C71.9303 36.8761 71.5303 36.8579 70.5755 36.8265H21.6833ZM82.1543 46.1053C81.7821 48.169 82.1299 48.0037 78.4048 48.0037C75.2186 47.9958 72.0351 47.8269 68.8678 47.4976C68.3721 47.4133 68.2312 46.6179 68.6278 46.3235C70.2 45.2004 71.9728 44.3567 73.8606 43.8331C77.5614 42.7963 79.6448 42.6574 81.7021 42.7268C81.8403 42.7318 81.9716 42.7853 82.0708 42.8769C82.1701 42.9685 82.2301 43.0917 82.2395 43.2229C82.3378 44.1855 82.3091 45.156 82.1543 46.1119V46.1053Z" fill="#EFE6E6"/>
<g clip-path="url(#clip0)">
<path d="M128.398 80.4628V97.9917C128.398 99.32 127.808 100.594 126.758 101.533C125.707 102.472 124.282 103 122.797 103C121.311 103 119.886 102.472 118.836 101.533C117.785 100.594 117.195 99.32 117.195 97.9917V85.4711H111.594V60.4298C111.594 58.4374 112.479 56.5266 114.055 55.1178C115.63 53.7089 117.768 52.9174 119.996 52.9174H128.398V80.4628ZM89.187 77.9587C87.7013 77.9587 86.2765 77.4311 85.226 76.4918C84.1755 75.5526 83.5853 74.2787 83.5853 72.9505V55.4216C83.5853 54.7574 83.8804 54.1205 84.4057 53.6509C84.9309 53.1813 85.6433 52.9174 86.3861 52.9174C87.129 52.9174 87.8414 53.1813 88.3666 53.6509C88.8919 54.1205 89.187 54.7574 89.187 55.4216V65.4381H91.9878V55.4216C91.9878 54.7574 92.2829 54.1205 92.8081 53.6509C93.3334 53.1813 94.0458 52.9174 94.7886 52.9174C95.5314 52.9174 96.2438 53.1813 96.7691 53.6509C97.2943 54.1205 97.5894 54.7574 97.5894 55.4216V65.4381H100.39V55.4216C100.39 54.7574 100.685 54.1205 101.211 53.6509C101.736 53.1813 102.448 52.9174 103.191 52.9174C103.934 52.9174 104.646 53.1813 105.172 53.6509C105.697 54.1205 105.992 54.7574 105.992 55.4216V72.9505C105.992 74.2787 105.402 75.5526 104.351 76.4918C103.301 77.4311 101.876 77.9587 100.39 77.9587V97.9917C100.39 99.32 99.8001 100.594 98.7496 101.533C97.6991 102.472 96.2743 103 94.7886 103C93.303 103 91.8782 102.472 90.8276 101.533C89.7771 100.594 89.187 99.32 89.187 97.9917V77.9587Z" fill="#659773"/>
</g>
<defs>
<clipPath id="clip0">
<rect width="56.0164" height="50.0826" fill="white" transform="translate(77.9836 52.9174)"/>
</clipPath>
</defs>
</svg>
