<svg width="600px" height="300px" viewBox="0 0 719 605" fill="none" xmlns="http://www.w3.org/2000/svg">
<g clip-path="url(#clip0)">
<path opacity="0.1" d="M388.951 88.4345C344.773 88.3478 302.207 71.3224 261.483 52.3755C220.758 33.4287 180.357 12.3004 136.979 3.23649C109.046 -2.5909 77.3674 -2.19716 55.6116 18.4979C34.681 38.4134 28.6882 71.4642 25.8187 102.034C23.6666 125.013 22.7016 149.15 31.0053 170.207C36.776 184.831 46.6159 196.895 53.5801 210.841C77.8118 259.35 63.4327 321.089 40.0962 370.559C29.1452 393.719 16.3152 415.949 8.05596 440.487C-0.203258 465.025 -3.54885 492.871 4.98336 517.149C13.4521 541.223 32.4972 558.776 52.8691 570.753C94.3175 595.165 142.483 600.536 189.359 602.717C293.142 607.552 397.084 598.937 500.753 590.275C539.116 587.078 577.65 583.849 615.207 574.297C636.062 568.997 657.525 561.099 672.279 543.648C691.007 521.504 694.765 485.24 681.046 459.119C658.027 415.264 597.616 406.791 581.047 359.4C571.924 333.311 579.669 303.489 591.115 278.399C615.677 224.622 658.052 176.523 658.63 116.264C659.024 74.874 636.836 34.4209 603.799 16.3087C569.163 -2.70115 522.032 1.97651 497.889 37.0038C473.029 73.0706 427.962 88.5132 388.951 88.4345Z" fill="#6C63FF"/>
<path d="M608.706 492.965C608.706 492.965 600.904 486.579 593.172 491.123C593.172 491.123 595.553 496.816 605.342 496.273L608.706 492.965Z" fill="#6C63FF"/>
<path d="M609.665 493.312C609.665 493.312 612.039 504.526 606.091 512.156C606.091 512.156 602.51 507.526 606.091 496.202L609.665 493.312Z" fill="#6C63FF"/>
<path d="M619.397 482.547C619.397 482.547 618.819 473.003 601.463 476.168C601.463 476.168 601.38 482.326 607.475 485.24C613.569 488.154 616.356 485.697 619.397 482.547Z" fill="#6C63FF"/>
<path d="M620.464 482.476C620.464 482.476 627.809 485.406 621.263 505.604C621.263 505.604 616.42 504.258 615.55 496.226C614.68 488.193 617.283 485.406 620.464 482.476Z" fill="#6C63FF"/>
<path d="M630.297 468.947C630.297 468.947 631.287 453.253 613.544 454.867C613.544 454.867 612.274 469.042 627.161 472.719L630.297 468.947Z" fill="#6C63FF"/>
<path d="M642.023 451.229C642.023 451.229 639.585 433.447 621.854 438.747C621.854 438.747 621.784 454.127 639.122 455.473L642.023 451.229Z" fill="#6C63FF"/>
<path d="M650.586 432.912C650.586 432.912 646.517 415.587 628.945 420.777C628.945 420.777 633.122 436.353 649.418 436.117L650.586 432.912Z" fill="#6C63FF"/>
<path d="M658.725 415.028C658.725 415.028 654.745 397.05 637.775 402.428C637.775 402.428 643.438 419.509 657.608 418.076L658.725 415.028Z" fill="#6C63FF"/>
<path d="M663.975 398.034C663.975 398.034 660.915 376.079 645.114 380.914C645.114 380.914 649.711 400.916 662.826 401.231L663.975 398.034Z" fill="#6C63FF"/>
<path d="M668.889 377.504C668.889 377.504 665.22 355.337 649.209 361.755C649.209 361.755 655.488 382.694 667.759 380.528L668.889 377.504Z" fill="#6C63FF"/>
<path d="M671.936 358.392C671.936 358.392 666.102 336.232 653.729 336.831C653.729 336.831 659.696 360.243 670.869 362.818L671.936 358.392Z" fill="#6C63FF"/>
<path d="M673.872 339.752C673.872 339.752 667.524 313.072 657.455 315.128C657.455 315.128 661.848 335.524 673.517 343.902L673.872 339.752Z" fill="#6C63FF"/>
<path d="M674.951 317.482C674.951 317.482 669.003 295.244 659.081 294.362C659.081 294.362 663.131 316.238 674.748 323.255L674.951 317.482Z" fill="#6C63FF"/>
<path d="M676.177 296.748C676.177 296.748 668.755 274.486 662.21 273.99C662.21 273.99 665.429 295.897 675.542 300.402L676.177 296.748Z" fill="#6C63FF"/>
<path d="M676.996 277.439C676.996 277.439 672.412 253.231 665.873 251.263C665.873 251.263 666.775 271.029 676.342 279.242L676.996 277.439Z" fill="#6C63FF"/>
<path d="M679.465 252.168C679.465 252.168 674.666 232.906 669.352 229.969C669.352 229.969 670.406 252.68 678.24 256.885L679.465 252.168Z" fill="#6C63FF"/>
<path d="M681.516 235.576L682.487 201.604C682.487 201.604 672.571 227.237 680.786 241.569L681.516 235.576Z" fill="#6C63FF"/>
<path d="M689.191 201.817C689.191 201.817 696.339 177.003 698.079 175.625C698.079 175.625 684.049 191.713 685.42 212.424L689.191 201.817Z" fill="#6C63FF"/>
<path d="M630.78 468.837C630.78 468.837 643.362 466.79 642.981 488.855C642.981 488.855 631.611 491.146 627.904 472.908L630.78 468.837Z" fill="#6C63FF"/>
<path d="M642.613 450.638C642.613 450.638 657.157 450.575 655.945 473.16C655.945 473.16 643.743 475.861 639.712 454.898L642.613 450.638Z" fill="#6C63FF"/>
<path d="M650.726 434.353C650.726 434.353 663.924 426.675 672.374 446.488C672.374 446.488 660.179 452.89 649.564 437.55L650.726 434.353Z" fill="#6C63FF"/>
<path d="M659.024 415.193C659.024 415.193 672.533 407.019 680.468 426.384C680.468 426.384 666.394 432.4 657.906 418.257L659.024 415.193Z" fill="#6C63FF"/>
<path d="M663.804 398.507C663.804 398.507 676.812 383.096 687.191 398.688C687.191 398.688 673.904 411.366 663.201 401.94L663.804 398.507Z" fill="#6C63FF"/>
<path d="M668.152 376.977C668.152 376.977 681.243 361.227 691.54 377.701C691.54 377.701 676.85 390.64 667.689 380.284L668.152 376.977Z" fill="#6C63FF"/>
<path d="M670.603 357.762C670.603 357.762 680.684 338.075 692.549 342.477C692.549 342.477 682.093 363.322 670.717 362.392L670.603 357.762Z" fill="#6C63FF"/>
<path d="M673.574 339.626C673.574 339.626 683.731 314.828 693.336 319.152C693.336 319.152 686.017 338.209 673.314 343.808L673.574 339.626Z" fill="#6C63FF"/>
<path d="M674.272 316.23C674.272 316.23 684.715 296.716 694.498 299.094C694.498 299.094 685.966 318.884 673.263 321.876L674.272 316.23Z" fill="#6C63FF"/>
<path d="M675.072 296.307C675.072 296.307 683.16 274.415 689.743 274.218C689.743 274.218 685.858 295.968 675.612 299.992L675.072 296.307Z" fill="#6C63FF"/>
<path d="M676.672 276.958C676.672 276.958 685.668 254.783 692.429 254.743C692.429 254.743 687.826 273.698 676.977 278.911L676.672 276.958Z" fill="#6C63FF"/>
<path d="M678.031 253.531C678.031 253.531 684.76 235.182 690.327 233.103C690.327 233.103 686.963 255.468 678.767 258.397L678.031 253.531Z" fill="#6C63FF"/>
<path d="M682.322 234.93L697.355 206.518C697.355 206.518 693.508 234.544 680.125 240.38L682.322 234.93Z" fill="#6C63FF"/>
<path d="M692.644 204.1C692.644 204.1 710.121 189.138 710.75 186.713C710.75 186.713 701.862 207.675 685.356 211.377L692.644 204.1Z" fill="#6C63FF"/>
<path d="M693.686 197.367C693.686 197.367 713.753 173.436 718.876 173.467C718.876 173.467 702.326 174.404 693.203 196.092L693.686 197.367Z" fill="#6C63FF"/>
<path d="M678.221 257.082L678.951 257.2C682.722 220.582 688.22 198.926 694.435 196.265L694.194 195.406C687.61 198.241 682.087 219.566 678.221 257.082Z" fill="#444053"/>
<path d="M672.679 344.627L673.783 344.745C674.012 341.327 674.19 337.823 674.31 334.342C675.364 304.032 677.002 276.21 679.148 255.35L678.513 254.365C676.361 275.265 674.266 303.938 673.212 334.279C673.085 337.744 672.907 341.225 672.679 344.627Z" fill="#444053"/>
<path d="M588.099 510.4C588.296 510.29 607.741 499.525 627.923 473.829C639.745 458.783 649.57 441.506 657.03 422.643C666.356 399.074 672.044 370.11 673.955 341.973L672.806 342.642C668.521 405.791 645.343 448.953 626.907 472.451C606.922 497.919 587.699 508.581 587.509 508.676L588.099 510.4Z" fill="#444053"/>
<path d="M665.759 38.4922H55.7577C54.3164 38.4922 52.9342 39.2024 51.9151 40.4666C50.896 41.7308 50.3235 43.4453 50.3235 45.2331V64.873H671.193V45.2331C671.193 43.4453 670.621 41.7308 669.602 40.4666C668.583 39.2024 667.2 38.4922 665.759 38.4922Z" fill="#3F3D56"/>
<path d="M50.3235 64.873V506.841C50.3235 510.446 51.4779 513.903 53.5328 516.452C55.5877 519.001 58.3747 520.433 61.2807 520.433H660.236C663.142 520.433 665.929 519.001 667.984 516.452C670.039 513.903 671.193 510.446 671.193 506.841V64.873H50.3235Z" fill="white"/>
<path opacity="0.8" d="M60.1634 54.6278C61.5659 54.6278 62.7028 53.2175 62.7028 51.4779C62.7028 49.7382 61.5659 48.3279 60.1634 48.3279C58.761 48.3279 57.6241 49.7382 57.6241 51.4779C57.6241 53.2175 58.761 54.6278 60.1634 54.6278Z" fill="#FA5959"/>
<path opacity="0.8" d="M67.1466 54.6278C68.5491 54.6278 69.686 53.2175 69.686 51.4779C69.686 49.7382 68.5491 48.3279 67.1466 48.3279C65.7442 48.3279 64.6072 49.7382 64.6072 51.4779C64.6072 53.2175 65.7442 54.6278 67.1466 54.6278Z" fill="#FED253"/>
<path opacity="0.8" d="M74.1298 54.6278C75.5322 54.6278 76.6691 53.2175 76.6691 51.4779C76.6691 49.7382 75.5322 48.3279 74.1298 48.3279C72.7274 48.3279 71.5905 49.7382 71.5905 51.4779C71.5905 53.2175 72.7274 54.6278 74.1298 54.6278Z" fill="#8CCF4D"/>
<g opacity="0.3">
<path opacity="0.3" d="M648.022 91.6396H74.1298V493.257H648.022V91.6396Z" stroke="#3F3D56" stroke-miterlimit="10"/>
<path opacity="0.3" d="M573.111 91.6396H149.041V493.257H573.111V91.6396Z" stroke="#3F3D56" stroke-miterlimit="10"/>
<path opacity="0.3" d="M498.2 91.6396H223.951V493.257H498.2V91.6396Z" stroke="#3F3D56" stroke-miterlimit="10"/>
<path opacity="0.3" d="M423.29 91.6396H298.862V493.257H423.29V91.6396Z" stroke="#3F3D56" stroke-miterlimit="10"/>
<path opacity="0.3" d="M361.076 91.6396V493.257" stroke="#3F3D56" stroke-miterlimit="10"/>
<path opacity="0.3" d="M648.022 149.913H74.1298V434.983H648.022V149.913Z" stroke="#3F3D56" stroke-miterlimit="10"/>
<path opacity="0.3" d="M648.022 207.4H74.1298V377.496H648.022V207.4Z" stroke="#3F3D56" stroke-miterlimit="10"/>
<path opacity="0.3" d="M648.022 264.886H74.1298V320.01H648.022V264.886Z" stroke="#3F3D56" stroke-miterlimit="10"/>
</g>
<path opacity="0.1" d="M209.033 114.083H163.959V134.557H209.033V114.083Z" fill="#3F3D56"/>
<path opacity="0.1" d="M127.139 169.994H93.4923V190.469H127.139V169.994Z" fill="#3F3D56"/>
<path opacity="0.1" d="M282.039 114.083H236.965V134.557H282.039V114.083Z" fill="#3F3D56"/>
<path opacity="0.1" d="M350.601 114.083H305.528V134.557H350.601V114.083Z" fill="#3F3D56"/>
<path opacity="0.1" d="M414.085 114.083H369.011V134.557H414.085V114.083Z" fill="#3F3D56"/>
<path opacity="0.1" d="M485.186 114.083H440.113V134.557H485.186V114.083Z" fill="#3F3D56"/>
<path opacity="0.1" d="M557.558 114.083H512.484V134.557H557.558V114.083Z" fill="#3F3D56"/>
<path opacity="0.1" d="M634.373 114.083H589.299V134.557H634.373V114.083Z" fill="#3F3D56"/>
<path d="M282.451 225.079H253.166V260.248H282.451V225.079Z" fill="url(#paint0_linear)"/>
<path d="M281.95 225.685H253.674V259.642H281.95V225.685Z" fill="#7CFCFF"/>
<path d="M342.786 217.456H313.501V252.625H342.786V217.456Z" fill="url(#paint1_linear)"/>
<path d="M342.285 218.062H314.009V252.019H342.285V218.062Z" fill="#FFFFA5"/>
<path d="M458.961 337.154H429.676V372.323H458.961V337.154Z" fill="url(#paint2_linear)"/>
<path d="M458.46 337.76H430.184V371.716H458.46V337.76Z" fill="#FFFFA5"/>
<path d="M201.053 162.403H171.768V197.572H201.053V162.403Z" fill="url(#paint3_linear)"/>
<path d="M200.545 163.009H172.269V196.966H200.545V163.009Z" fill="#FFFFA5"/>
<path d="M259.242 212.802H229.957V247.971H259.242V212.802Z" fill="url(#paint4_linear)"/>
<path d="M258.734 213.408H230.458V247.365H258.734V213.408Z" fill="#FF69B4"/>
<path d="M493.217 336.902H463.932V372.071H493.217V336.902Z" fill="url(#paint5_linear)"/>
<path d="M492.715 337.508H464.44V371.464H492.715V337.508Z" fill="#7CFCFF"/>
<path d="M544.639 162.868H515.354V198.037H544.639V162.868Z" fill="url(#paint6_linear)"/>
<path d="M544.137 163.474H515.862V197.43H544.137V163.474Z" fill="#7CFCFF"/>
<path d="M541.464 274.69H512.18V309.859H541.464V274.69Z" fill="url(#paint7_linear)"/>
<path d="M540.963 275.297H512.687V309.253H540.963V275.297Z" fill="#7CFCFF"/>
<path d="M563.684 282.565H534.399V317.734H563.684V282.565Z" fill="url(#paint8_linear)"/>
<path d="M563.182 283.172H534.907V317.128H563.182V283.172Z" fill="#7CFCFF"/>
<path d="M470.007 324.625H440.722V359.794H470.007V324.625Z" fill="url(#paint9_linear)"/>
<path d="M469.5 325.231H441.224V359.187H469.5V325.231Z" fill="#FF69B4"/>
<path d="M473.182 218.314H443.897V253.483H473.182V218.314Z" fill="url(#paint10_linear)"/>
<path d="M472.674 218.921H444.398V252.877H472.674V218.921Z" fill="#FF69B4"/>
<path opacity="0.1" d="M127.139 225.118H93.4923V245.593H127.139V225.118Z" fill="#3F3D56"/>
<path opacity="0.1" d="M127.139 282.605H93.4923V303.079H127.139V282.605Z" fill="#3F3D56"/>
<path opacity="0.1" d="M127.139 340.091H93.4923V360.566H127.139V340.091Z" fill="#3F3D56"/>
<path opacity="0.1" d="M127.139 397.577H93.4923V418.052H127.139V397.577Z" fill="#3F3D56"/>
<path opacity="0.1" d="M127.139 455.064H93.4923V475.538H127.139V455.064Z" fill="#3F3D56"/>
<path d="M195.701 276.47C196.641 275.73 196.266 273.745 195.301 273.06C194.336 272.375 193.136 272.604 192.051 272.871C192.097 272.528 192.054 272.175 191.929 271.864C191.803 271.553 191.601 271.299 191.352 271.139V270.84C191.987 270.052 191.746 268.477 190.971 267.784C190.197 267.091 188.991 267.06 187.95 267.123C188.024 266.34 187.947 265.546 187.726 264.807C187.506 264.068 187.147 263.404 186.68 262.87C186.498 262.627 186.249 262.478 185.982 262.453C185.347 262.453 185.169 263.461 185.125 264.209C185.004 266.174 184.743 268.121 184.344 270.028L164.613 310.978C162.417 314.915 169.241 303.103 167.044 307.08C165.932 309.244 164.629 311.249 163.159 313.057C161.84 314.517 160.364 315.744 158.773 316.703C157.71 316.741 156.664 316.373 155.776 315.647C154.661 314.679 153.687 313.483 152.894 312.112C151.174 309.4 149.619 306.533 148.241 303.536C147.763 302.587 147.403 301.554 147.174 300.473C146.882 298.772 147.174 296.929 146.634 295.33C146.405 294.734 146.119 294.174 145.784 293.661L144.419 291.417V291.314C144.267 287.991 142.089 285.424 140.058 283.235C138.331 281.36 136.458 279.407 134.179 279.045C132.96 278.848 131.709 279.14 130.491 278.951C129.494 278.793 128.548 278.329 127.558 278.124C126.604 277.962 125.639 277.939 124.682 278.053L124.276 277.588C126.383 276.484 128.172 274.618 129.411 272.233C130.351 270.351 130.865 268.178 131.735 266.241C132.795 263.878 134.369 261.925 135.544 259.657C138.382 254.279 138.902 247.357 137.753 241.088C136.604 234.82 133.912 229.127 130.77 224.047C124.675 214.267 114.455 210.66 104.831 212.55C104.196 212.676 103.561 212.826 102.926 212.999C101.307 213.421 99.7265 214.047 98.2092 214.865C96.1561 215.908 94.3746 217.633 93.0606 219.85C92.7064 220.498 92.4065 221.189 92.1655 221.913C91.9882 222.466 91.844 223.035 91.7338 223.614C91.4387 225.364 91.3595 227.159 91.499 228.938C91.537 229.544 91.5878 230.15 91.645 230.757L91.7402 231.67C91.8037 232.276 91.8735 232.883 91.9433 233.489C92.0449 234.403 92.1401 235.316 92.21 236.214C92.2659 236.849 92.2935 237.488 92.2925 238.127C92.2925 238.293 92.2925 238.45 92.2925 238.608C92.2701 239.083 92.2127 239.555 92.1211 240.017C92.071 240.272 92.0074 240.522 91.9306 240.766C91.702 241.489 91.4013 242.174 91.0355 242.805C90.541 243.661 90.0046 244.479 89.4294 245.254L88.8771 246.042C88.693 246.302 88.5152 246.569 88.3311 246.829C87.6053 247.879 86.9413 248.992 86.3441 250.16C86.0527 250.748 85.7919 251.358 85.5632 251.987C85.3895 252.464 85.239 252.953 85.1125 253.452C84.9509 254.121 84.8362 254.806 84.7697 255.499C84.7697 255.673 84.7697 255.846 84.7316 256.019C84.7316 256.358 84.7316 256.704 84.7316 257.051C84.7455 257.394 84.7752 257.736 84.8205 258.074C84.8651 258.41 84.9288 258.742 85.0109 259.067C85.0905 259.396 85.1902 259.717 85.3093 260.027C85.3093 260.114 85.3728 260.201 85.4109 260.287L85.5124 260.547C85.5823 260.72 85.6521 260.886 85.7156 261.059C85.8114 261.31 85.8818 261.574 85.9251 261.846C85.9251 261.933 85.9251 262.028 85.9251 262.122C85.9251 262.217 85.9251 262.327 85.9251 262.421C85.8241 263.212 85.4891 263.928 84.9855 264.429C84.8586 264.579 84.7316 264.713 84.5983 264.855L84.3951 265.059L83.9825 265.461L83.5889 265.855C83.243 266.214 82.9224 266.609 82.6303 267.036C79.0557 266.799 75.4727 267.234 72.0031 268.327C70.7705 268.825 69.4892 269.114 68.1941 269.186C67.8833 269.221 67.5703 269.162 67.2825 269.012C66.9947 268.862 66.7409 268.627 66.5435 268.327C66.3236 267.737 66.2635 267.074 66.3721 266.438C66.5433 263.801 66.1947 261.152 65.3564 258.72C65.1538 258.008 64.8034 257.376 64.3407 256.885C64.1049 256.647 63.8143 256.509 63.5108 256.489C63.2073 256.469 62.9066 256.569 62.652 256.775C63.7257 261.083 63.5711 265.719 62.214 269.902C61.517 271.875 60.6999 273.778 59.7698 275.596C58.3224 278.659 57.5098 282.164 56.2211 285.337C57.6622 291.393 57.3384 297.858 58.1256 304.111C58.8303 309.93 60.4681 315.506 62.1124 321.026C63.382 325.192 64.7025 329.539 67.3942 332.468C68.2617 333.554 69.4319 334.185 70.6636 334.232C71.5753 334.092 72.4464 333.681 73.203 333.035C73.9881 332.504 74.712 331.845 75.3551 331.074C75.593 330.751 75.8056 330.4 75.9899 330.027C76.0687 330.554 76.2305 331.057 76.466 331.507C78.015 327.365 79.7164 323.318 81.5447 319.356C82.0893 318.997 82.6003 318.564 83.0683 318.065C83.0683 318.207 83.1255 318.348 83.1572 318.49C83.0747 318.868 82.9985 319.278 82.916 319.632C82.8334 319.986 82.7382 320.364 82.6493 320.719C82.5605 321.073 82.516 321.246 82.4462 321.506C82.3764 321.766 82.2748 322.136 82.1796 322.451C82.0843 322.766 81.9764 323.136 81.8685 323.475C81.7606 323.814 81.7225 323.963 81.6399 324.199C81.4431 324.798 81.24 325.381 81.0051 325.963C81.182 326.07 81.3644 326.162 81.5511 326.239L81.6717 326.286C81.8363 326.351 82.0037 326.403 82.1732 326.444H82.3573C82.4814 326.468 82.6064 326.484 82.7319 326.491H82.8715H83.2842C83.7385 326.466 84.1885 326.371 84.6237 326.208L84.8713 327.468C85.5045 330.299 85.9128 333.2 86.0901 336.13C86.2108 339.437 85.7473 342.8 86.2616 346.052C86.5218 347.745 87.0487 349.367 87.2392 351.068C87.362 352.67 87.3385 354.284 87.1694 355.88C86.8731 359.744 86.5769 363.61 86.2806 367.48C86.2534 368.9 85.9806 370.296 85.4807 371.575C85.0427 372.52 84.3317 373.598 84.776 374.535C85.5077 374.294 86.2524 374.118 87.0043 374.008C86.7313 375.236 86.4837 376.473 86.2489 377.717C86.0198 378.642 85.9591 379.618 86.0711 380.576C86.2298 381.473 86.7059 382.284 86.7567 383.198C86.871 384.615 86.0775 385.867 85.6394 387.182C84.5221 390.537 85.7092 394.317 86.9091 397.64L90.4134 407.5L93.2892 415.587C94.1399 417.949 94.9969 420.391 95.8285 422.816C99.5763 433.86 102.637 445.243 104.983 456.867C105.061 457.395 105.223 457.898 105.459 458.347C105.941 459.135 106.824 459.387 107.541 459.875C109.693 461.348 109.941 465.742 107.973 467.569C108.373 473.491 104.799 479.216 102.958 484.697C98.717 497.296 99.4852 511.518 98.0314 525.063L99.6756 523.874C99.8706 523.983 100.051 524.129 100.209 524.307C100.171 524.559 100.126 524.822 100.076 525.095C99.8532 526.246 99.4982 527.352 99.0218 528.378C98.0632 530.418 96.5967 532.237 96.3745 534.584C96.2412 536.001 96.5903 537.419 96.584 538.844C96.584 538.978 96.584 539.104 96.584 539.238C96.438 539.065 96.2158 539.08 95.8857 539.403C95.3689 540.076 95.011 540.913 94.8509 541.821C94.5652 542.837 94.3367 543.868 94.1081 544.9L93.2575 548.538C92.823 550.731 92.2477 552.877 91.537 554.956C90.9293 556.348 90.4195 557.802 90.0134 559.303C89.7871 560.526 89.6995 561.782 89.7532 563.036C89.7365 564.237 89.8758 565.433 90.1658 566.579C90.5468 567.708 91.1134 568.726 91.8294 569.568C92.5453 570.41 93.3949 571.058 94.324 571.47C96.1835 572.28 98.1312 572.737 100.101 572.824C100.606 572.904 101.118 572.886 101.618 572.769C102.154 572.578 102.653 572.253 103.085 571.816C105.764 569.375 107.148 564.886 107.389 560.791C107.321 559.946 107.2 559.109 107.027 558.287C107.192 553.806 106.665 549.302 106.938 544.837C106.995 545.349 107.052 545.853 107.116 546.357L107.751 551.373C107.714 551.195 107.639 551.032 107.535 550.9C107.065 552.758 106.982 554.733 107.294 556.641C107.61 558.54 108.056 560.403 108.627 562.209L109.49 565.201C109.698 566.104 110.048 566.947 110.519 567.682C111.274 568.713 112.423 569.099 113.528 569.43C115.902 570.29 118.347 570.819 120.816 571.005C121.146 571.053 121.48 570.976 121.774 570.784C121.925 570.646 122.07 570.496 122.206 570.336C122.425 570.141 122.659 569.972 122.904 569.832C123.965 569.139 124.767 567.961 125.139 566.548C125.318 565.845 125.373 565.102 125.302 564.37C125.231 563.638 125.035 562.934 124.726 562.303C124.438 561.771 124.108 561.276 123.742 560.823L119.4 555.113C118.736 554.135 118.028 553.205 117.28 552.326C117.19 552.212 117.08 552.127 116.959 552.078C116.837 552.028 116.708 552.016 116.581 552.042C115.401 548.388 115.553 544.12 115.756 540.112C115.82 538.915 116.346 536.434 116.556 534.395C117.393 534.044 118.174 533.511 118.86 532.82C119.522 532.22 119.992 531.35 120.187 530.363C122.377 516.487 125.901 503.037 129.227 489.516C129.557 488.185 129.862 486.846 130.199 485.516C130.338 484.949 130.465 484.374 130.599 483.799C130.732 483.224 130.821 482.87 130.929 482.405C131.106 481.618 131.284 480.83 131.456 480.043C131.506 479.83 131.551 479.617 131.602 479.405C131.599 479.363 131.599 479.321 131.602 479.279C131.811 478.31 132.014 477.342 132.236 476.373C132.313 475.995 132.395 475.633 132.471 475.255C132.719 474.026 132.966 472.782 133.201 471.546C133.24 471.375 133.27 471.201 133.29 471.026C133.376 470.589 133.352 470.13 133.22 469.711C133.157 469.549 133.074 469.4 132.973 469.27C132.903 469.167 132.827 469.065 132.751 468.971C132.674 468.876 132.586 468.75 132.509 468.632C132.309 468.327 132.158 467.977 132.065 467.6C132.065 467.222 132.065 466.813 132.065 466.466C132.065 466.12 132.027 465.679 132.008 465.269C132.076 464.737 132.171 464.211 132.294 463.694C132.37 463.387 132.452 463.08 132.528 462.773C132.605 462.466 132.719 461.986 132.82 461.631C133.2 461.094 133.406 460.401 133.398 459.686C133.792 458.468 134.226 457.274 134.7 456.103C135.284 454.916 135.679 453.601 135.861 452.229C135.859 450.989 135.735 449.754 135.493 448.551C134.858 443.433 136.763 438.448 138.166 433.589C139.207 430.005 139.997 426.316 140.527 422.564C140.94 419.69 141.226 416.674 142.464 414.185C142.872 413.487 143.221 412.737 143.505 411.949C143.697 411.125 143.791 410.271 143.784 409.413C143.94 405.936 144.619 402.525 145.784 399.357C146.042 398.743 146.218 398.08 146.304 397.396C146.308 397.352 146.308 397.307 146.304 397.262V397.073L146.628 397.01C147.18 392.671 147.739 387.836 147.358 383.466C146.863 378.403 144.875 373.747 141.778 370.393H141.841C142.933 369.708 143.422 368.031 143.441 366.55C143.444 365.429 143.243 364.32 142.854 363.308C142.465 362.295 141.898 361.404 141.194 360.699C140.879 360.457 140.617 360.121 140.432 359.723C140.327 359.314 140.294 358.881 140.337 358.455C140.342 357.169 140.039 355.911 139.466 354.839C138.892 353.768 138.075 352.932 137.118 352.439C136.92 352.37 136.738 352.24 136.591 352.061C136.428 351.714 136.378 351.302 136.452 350.911C136.511 349.632 136.287 348.358 135.805 347.226C135.322 346.093 134.6 345.146 133.716 344.485C133.97 342.8 134.223 341.036 133.836 339.382C133.449 337.728 132.198 336.232 130.827 336.469C131.944 332.689 130.357 328.483 130.776 324.491C130.96 322.774 131.513 321.128 131.583 319.404C131.646 317.829 131.335 316.144 131.951 314.773C132.567 313.403 134.02 312.332 133.646 310.836C133.487 310.198 133.011 309.757 132.789 309.135C132.567 308.513 133.455 307.56 133.912 307.906C134.128 307.702 134.344 307.489 134.547 307.269C134.613 308.069 134.741 308.86 134.928 309.631C135.239 310.923 135.715 312.135 136.039 313.419C136.534 315.38 136.674 317.506 137.474 319.301C138.743 322.176 141.429 323.601 143.244 325.987C144.311 327.381 145.079 329.137 146.177 330.46C147.012 331.426 147.927 332.279 148.907 333.004L154.773 337.728C155.382 338.276 156.06 338.694 156.779 338.965C157.236 339.073 157.705 339.064 158.159 338.94C158.613 338.815 159.041 338.577 159.418 338.24C159.796 337.904 160.114 337.475 160.353 336.981C160.592 336.487 160.748 335.937 160.81 335.366C160.271 335.129 159.779 334.751 159.369 334.256C159.452 334.256 159.534 334.256 159.617 334.208C161.01 333.756 162.299 332.907 163.381 331.728C167.559 327.601 170.561 321.971 173.494 316.435C176.567 310.631 191.352 295.275 191.352 295.275V289.054C193.234 287.701 194.903 285.938 196.279 283.849C197.021 282.735 197.454 281.354 197.517 279.911C197.545 279.174 197.385 278.444 197.059 277.826C196.733 277.208 196.257 276.733 195.701 276.47ZM72.7332 291.393C72.4496 293.656 72.1005 295.903 71.6857 298.134C71.2288 300.714 70.6437 303.258 69.9336 305.749L69.705 306.536C69.4955 306.048 69.286 305.568 69.0702 305.071C68.5941 303.835 68.2068 302.552 67.8005 301.268L65.35 293.078C65.0326 292.015 64.7152 290.787 65.1913 289.81C65.5403 289.212 66.0273 288.759 66.588 288.511C68.3109 287.531 70.1106 286.773 71.9587 286.251C72.543 286.105 73.1197 285.916 73.6854 285.684C73.2299 287.547 72.9112 289.458 72.7332 291.393ZM75.4439 281.156C75.3622 280.974 75.3193 280.769 75.3193 280.561C75.3193 280.353 75.3622 280.148 75.4439 279.967C75.6274 279.737 75.8424 279.551 76.0788 279.415L76.2629 279.258C76.0089 279.911 75.7233 280.541 75.4439 281.179V281.156ZM80.5226 272.249C79.802 272.991 79.1466 273.825 78.5673 274.738C77.9458 275.756 77.3856 276.83 76.8914 277.951C76.9662 277.515 76.9404 277.062 76.8169 276.644C76.6933 276.226 76.4771 275.86 76.1931 275.588C75.9682 275.435 75.7557 275.256 75.5582 275.053C75.3461 274.702 75.255 274.261 75.305 273.826C75.355 273.392 75.542 273.001 75.8248 272.737C76.409 272.24 77.0919 271.952 77.7992 271.903L80.7258 271.367C80.6369 271.674 80.5798 271.974 80.5163 272.273L80.5226 272.249ZM107.922 535.781C107.974 534.692 107.916 533.6 107.751 532.528C108.113 532.528 108.474 532.528 108.83 532.528C108.532 533.576 108.227 534.686 107.922 535.781Z" fill="url(#paint11_linear)"/>
<path d="M104.938 214.912C99.8598 215.928 94.2097 218.354 92.2417 224.26C90.7753 228.725 91.9116 233.749 92.2862 238.545C92.4282 239.811 92.3917 241.098 92.1782 242.348C91.7592 244.372 90.6039 246.01 89.4865 247.577C87.9344 249.567 86.6312 251.834 85.6204 254.302C84.7062 256.822 84.4142 259.815 85.3601 262.335C85.6819 262.982 85.8976 263.702 85.9949 264.453C86.0584 266.091 84.6745 267.131 83.6587 268.178C79.8497 272.115 80.0084 279.203 79.9767 285.369C79.9182 297.941 77.6681 310.35 73.3807 321.743C74.9875 322.752 76.8023 323.137 78.5882 322.848C80.3742 322.558 82.0483 321.608 83.3921 320.12C82.8642 322.92 82.1025 325.644 81.1194 328.247C84.3444 330.184 88.2359 327.003 89.8547 323.034C91.4736 319.065 91.664 314.45 92.8131 310.237C93.9621 306.024 95.9873 302.363 96.8824 298.118C97.1681 296.716 97.3458 295.22 98.0378 294.055C98.6208 293.211 99.3062 292.486 100.069 291.905C103.418 288.907 105.928 284.686 107.249 279.833C111.198 280.912 115.229 281.998 119.254 281.542C123.279 281.085 127.393 278.825 129.519 274.556C130.459 272.674 130.967 270.509 131.836 268.572C132.903 266.209 134.471 264.256 135.645 261.996C138.477 256.618 138.997 249.711 137.848 243.443C136.699 237.175 134.039 231.505 130.865 226.425C124.783 216.629 114.563 212.999 104.938 214.912Z" fill="#303D5C"/>
<path d="M72.8855 293.677C72.5999 295.929 72.2507 298.181 71.8444 300.41C71.3837 302.987 70.7986 305.527 70.0923 308.017C69.6769 309.107 69.4871 310.309 69.54 311.513C69.6652 312.251 69.8952 312.955 70.2192 313.592C72.5364 318.703 75.6725 323.64 75.9328 329.499C75.9962 330.956 75.9328 332.539 76.5676 333.744C78.3578 328.961 80.3343 324.299 82.497 319.758C84.757 315.033 87.2709 310.198 87.9185 304.733C88.1767 302.168 88.1489 299.571 87.8359 297.016C87.5376 294.141 87.017 291.196 85.6077 288.897C84.0714 286.408 79.8941 282.652 77.1453 283.432C73.9521 284.337 73.2918 290.472 72.8855 293.677Z" fill="#6C63FF"/>
<path d="M154.71 321.223C157.744 319.687 160.842 318.073 163.248 315.301C164.718 313.493 166.021 311.489 167.133 309.324L174.275 296.543C175.964 293.503 177.71 290.314 178.084 286.652C182.267 281.175 184.787 274.066 185.213 266.54C185.264 265.792 185.467 264.807 186.071 264.784C186.337 264.809 186.587 264.958 186.769 265.201C187.236 265.734 187.594 266.397 187.815 267.134C188.035 267.872 188.112 268.664 188.038 269.446C189.08 269.383 190.21 269.351 191.06 270.107C191.911 270.863 192.14 272.737 191.225 273.36C191.531 273.475 191.793 273.725 191.96 274.063C192.127 274.401 192.189 274.804 192.133 275.194C193.225 274.927 194.425 274.706 195.39 275.383C196.355 276.061 196.723 278.045 195.79 278.785C196.334 279.046 196.8 279.509 197.124 280.111C197.447 280.713 197.614 281.424 197.599 282.148C197.541 283.592 197.107 284.974 196.361 286.085C193.619 290.653 188.781 292.495 185.601 296.606C184.556 298.043 183.619 299.596 182.801 301.244L173.59 318.632C170.663 324.144 167.66 329.791 163.483 333.901C162.401 335.08 161.112 335.93 159.718 336.382C159.021 336.6 158.289 336.589 157.595 336.351C156.902 336.112 156.271 335.653 155.763 335.02C154.843 333.72 154.703 331.87 154.614 330.129C154.462 327.2 154.868 324.176 154.71 321.223Z" fill="#EE8E9E"/>
<path d="M123.863 562.713C124.23 563.164 124.56 563.66 124.847 564.193C125.155 564.822 125.351 565.526 125.422 566.256C125.494 566.987 125.438 567.728 125.26 568.43C124.892 569.842 124.091 571.018 123.031 571.706C122.783 571.844 122.547 572.013 122.327 572.21C122.192 572.375 122.047 572.527 121.895 572.667C121.599 572.851 121.266 572.927 120.936 572.887C118.47 572.693 116.028 572.165 113.655 571.312C112.563 570.974 111.407 570.588 110.646 569.564C110.175 568.829 109.825 567.986 109.617 567.083L108.754 564.099C108.187 562.295 107.743 560.435 107.427 558.539C107.112 556.634 107.195 554.66 107.668 552.806C107.882 553.139 107.995 553.554 107.986 553.98C108.24 555.989 108.875 557.894 109.839 559.539C110.041 559.951 110.284 560.33 110.563 560.665C111.194 561.266 111.94 561.654 112.728 561.791C114.244 562.2 115.786 562.445 117.337 562.524C117.551 562.56 117.77 562.527 117.972 562.429C118.221 562.258 118.409 561.977 118.499 561.642C118.721 560.878 118.721 560.043 118.499 559.279C118.08 557.823 116.93 556.87 116.385 555.484C115.972 554.46 116.537 553.334 117.375 554.2C118.127 555.077 118.837 556.008 119.502 556.988L123.863 562.713Z" fill="#303D5C"/>
<path d="M115.883 542.026C115.635 546.837 115.464 552.035 117.584 556.074C118.353 557.523 119.375 558.744 120.244 560.106C120.743 560.787 121.074 561.632 121.197 562.54C121.317 564.304 119.984 565.815 118.581 566.146C117.178 566.477 115.743 565.926 114.385 565.359C113.099 564.962 111.889 564.256 110.823 563.28C108.976 561.343 108.487 558.114 108.119 555.153L107.256 548.27C106.602 544.791 106.878 541.143 108.043 537.876L109.465 532.71C109.558 532.207 109.781 531.757 110.1 531.426C110.43 531.2 110.811 531.112 111.185 531.174C112.544 531.261 115.978 531.875 116.638 533.663C117.197 535.214 115.978 540.175 115.883 542.026Z" fill="#EE8E9E"/>
<path opacity="0.05" d="M115.883 542.026C115.635 546.837 115.464 552.035 117.584 556.074C118.353 557.523 119.375 558.744 120.244 560.106C120.743 560.787 121.074 561.632 121.197 562.54C121.317 564.304 119.984 565.815 118.581 566.146C117.178 566.477 115.743 565.926 114.385 565.359C113.099 564.962 111.889 564.256 110.823 563.28C108.976 561.343 108.487 558.114 108.119 555.153L107.256 548.27C106.602 544.791 106.878 541.143 108.043 537.876L109.465 532.71C109.558 532.207 109.781 531.757 110.1 531.426C110.43 531.2 110.811 531.112 111.185 531.174C112.544 531.261 115.978 531.875 116.638 533.663C117.197 535.214 115.978 540.175 115.883 542.026Z" fill="black"/>
<path d="M146.4 399.404C146.402 399.449 146.402 399.494 146.4 399.538C146.319 400.219 146.143 400.878 145.879 401.483C144.714 404.644 144.033 408.046 143.873 411.516C143.88 412.373 143.786 413.228 143.594 414.051C143.309 414.836 142.96 415.583 142.553 416.28C141.315 418.776 141.029 421.792 140.616 424.651C140.084 428.387 139.294 432.06 138.255 435.629C136.839 440.495 134.934 445.472 135.582 450.591C135.824 451.794 135.947 453.028 135.95 454.268C135.769 455.639 135.375 456.952 134.788 458.135C134.314 459.3 133.891 460.495 133.519 461.718C133.106 463.025 132.738 464.364 132.414 465.718C132.033 467.364 131.779 469.317 132.655 470.64C132.928 470.964 133.168 471.326 133.373 471.719C133.538 472.322 133.538 472.975 133.373 473.577C132.869 476.202 132.332 478.827 131.76 481.452C131.316 483.5 130.846 485.531 130.364 487.563C126.796 502.423 122.746 517.133 120.359 532.355C120.016 534.544 117.749 536.111 115.997 536.592C115.115 536.826 114.2 536.797 113.329 536.508C112.457 536.22 111.653 535.679 110.982 534.93C110.861 534.796 110.747 534.647 110.639 534.505C108.798 532.048 108.525 528.276 108.665 524.874C109.3 509.211 115.648 494.871 118.67 479.649C119.763 474.145 120.422 468.522 120.638 462.86C121.343 443.96 121.628 423.974 117.318 405.807C116.423 402.027 115.362 397.758 116.975 394.372C117.991 392.23 119.876 390.962 121.743 390.049C125.549 388.209 129.613 387.331 133.697 387.466C137.781 387.601 141.802 388.747 145.524 390.836C145.53 391.215 145.517 391.594 145.485 391.97C145.324 393.731 145.489 395.514 145.968 397.184C146.214 397.887 146.361 398.639 146.4 399.404Z" fill="#303D5C"/>
<path d="M94.2033 546.869L93.3971 550.507C92.9677 552.695 92.3944 554.837 91.683 556.909C91.0752 558.301 90.5655 559.755 90.1594 561.256C89.9331 562.479 89.8455 563.735 89.8991 564.989C89.8825 566.187 90.0218 567.381 90.3118 568.524C90.6918 569.652 91.2574 570.668 91.9723 571.509C92.6873 572.35 93.5358 572.996 94.4636 573.407C96.3228 574.218 98.2709 574.672 100.241 574.753C100.745 574.84 101.258 574.824 101.758 574.706C102.294 574.515 102.793 574.191 103.224 573.753C105.903 571.32 107.281 566.831 107.522 562.729C107.453 561.772 107.302 560.827 107.071 559.909C106.862 559.563 104.837 560.98 105.707 562.169C106.976 563.918 103.237 563.012 101.333 562.862C100.496 562.773 99.6661 562.605 98.8503 562.358L95.765 561.571C94.7556 561.303 93.5939 560.87 93.2257 559.673C92.8575 558.476 93.6447 557.043 94.2541 555.877C95.8666 552.783 96.2856 548.995 96.6601 545.341C96.73 544.624 97.4537 539.97 95.9618 541.404C95.4497 542.081 95.0925 542.915 94.927 543.821C94.6541 544.805 94.4255 545.837 94.2033 546.869Z" fill="#303D5C"/>
<path opacity="0.05" d="M132.624 470.648C131.748 469.325 131.989 467.372 132.389 465.726C132.528 465.112 132.687 464.506 132.852 463.899L120.739 458.812C120.695 460.167 120.644 461.505 120.593 462.844C120.382 468.509 119.725 474.135 118.632 479.641C115.604 494.855 109.249 509.195 108.627 524.851C108.481 528.457 108.792 532.489 110.944 534.915C111.614 535.663 112.416 536.205 113.287 536.495C114.157 536.785 115.071 536.816 115.953 536.584C117.711 536.104 119.971 534.529 120.321 532.34C122.72 517.118 126.751 502.415 130.326 487.54C131.439 482.925 132.442 478.274 133.335 473.585C133.5 472.985 133.5 472.335 133.335 471.735C133.136 471.337 132.897 470.971 132.624 470.648Z" fill="black"/>
<path d="M99.1551 530.363C98.1965 532.41 96.7364 534.222 96.5142 536.568C96.3809 537.978 96.73 539.395 96.7237 540.821C96.6768 542 96.5082 543.167 96.2222 544.294C95.0414 549.58 93.6828 554.793 92.1465 559.933C91.894 560.596 91.7825 561.328 91.8227 562.059C91.9751 563.264 92.921 564.06 93.8225 564.54C96.711 566.068 99.9613 565.965 103.097 565.808C104.009 565.854 104.914 565.581 105.707 565.02C106.83 564.067 107.11 562.185 107.179 560.5C107.395 555.618 106.729 550.712 107.179 545.861C107.338 544.089 107.637 542.348 107.859 540.592C108.17 538.151 108.328 535.584 107.681 533.245C107.145 531.567 106.395 530.006 105.459 528.623C104.634 527.125 103.589 525.832 102.38 524.811C102.012 524.543 100.964 523.709 100.59 524.228C100.399 524.496 100.482 525.213 100.457 525.544C100.407 526.052 100.335 526.557 100.241 527.055C100.009 528.217 99.643 529.331 99.1551 530.363Z" fill="#EE8E9E"/>
<path opacity="0.05" d="M122.428 405.499C121.863 406.452 121.977 407.775 122.206 408.925C122.606 411.004 123.279 412.996 123.825 415.02C124.718 418.654 125.414 422.358 125.907 426.108C126.415 429.494 127.494 433.266 127.056 436.676C130.367 444.493 132.544 452.973 133.487 461.726C133.735 463.97 129.716 466.868 129.792 469.128C129.945 473.632 132.84 473.995 130.706 477.586C130.599 477.767 131.506 481.791 131.386 481.964C130.516 483.263 129.411 484.327 128.478 485.516C127.275 487.207 126.245 489.077 125.412 491.083C119.889 503.462 111.903 517.495 114.366 531.316C114.416 531.813 114.342 532.318 114.153 532.762C113.965 533.205 113.671 533.567 113.312 533.796C112.583 534.232 111.785 534.46 110.976 534.466H110.595C108.754 532.009 108.481 528.237 108.621 524.835C109.255 509.172 115.604 494.832 118.626 479.61C119.718 474.105 120.378 468.483 120.594 462.82C121.298 443.921 121.584 423.934 117.273 405.767C116.378 401.987 115.318 397.719 116.931 394.333C117.946 392.191 119.832 390.923 121.698 390.009C125.505 388.169 129.569 387.291 133.653 387.426C137.736 387.562 141.757 388.708 145.479 390.797C145.485 391.176 145.473 391.554 145.441 391.931C145.279 393.692 145.444 395.475 145.923 397.144C146.19 397.859 146.351 398.627 146.4 399.412C146.4 399.412 146.615 396.364 146.609 396.412C141.689 397.286 136.496 401.278 131.532 402.184C128.958 402.525 126.422 403.217 123.971 404.247C123.374 404.481 122.84 404.914 122.428 405.499Z" fill="black"/>
<path d="M88.1534 371.968C87.4889 374.593 86.9027 377.244 86.3949 379.922C86.1689 380.847 86.1082 381.823 86.2171 382.78C86.3758 383.678 86.852 384.481 86.9027 385.395C87.017 386.812 86.2235 388.064 85.7854 389.38C84.6681 392.726 85.8616 396.506 87.0551 399.822L90.5594 409.665L93.4416 417.745C94.2986 420.147 95.1493 422.548 95.9809 424.966C99.7266 435.997 102.785 447.367 105.129 458.978C105.208 459.504 105.367 460.006 105.599 460.458C106.087 461.246 106.97 461.498 107.681 461.986C109.839 463.45 110.087 467.845 108.113 469.672C108.519 475.586 104.938 481.295 103.104 486.776C98.8631 499.376 99.6312 513.55 98.1774 527.095L99.8217 525.898C101.402 526.796 101.345 529.576 102.196 531.458C103.466 534.285 106.589 534.678 109.179 534.466C109.986 534.461 110.782 534.233 111.509 533.797C111.869 533.568 112.163 533.206 112.352 532.763C112.54 532.319 112.614 531.814 112.563 531.316C110.106 517.496 118.086 503.463 123.615 491.083C124.446 489.078 125.474 487.208 126.675 485.516C127.615 484.287 128.713 483.256 129.589 481.964C132.027 478.334 132.338 473.215 132.173 468.49C131.786 457.38 129.423 446.513 125.253 436.668C125.698 433.266 124.618 429.494 124.11 426.108C123.616 422.359 122.913 418.657 122.009 415.028C121.463 412.988 120.797 411.004 120.39 408.925C120.168 407.775 120.048 406.452 120.613 405.499C121.03 404.911 121.57 404.478 122.174 404.247C124.626 403.217 127.161 402.525 129.735 402.184L146.768 399.152C147.314 394.813 147.872 389.978 147.492 385.615C147.082 381.573 145.725 377.768 143.589 374.673C141.453 371.578 138.631 369.329 135.474 368.204C134.731 367.96 133.862 367.802 133.252 368.385C118.222 364.725 102.684 365.96 88.1534 371.968Z" fill="#303D5C"/>
<path d="M103.599 257.854C103.847 259.917 103.588 262.024 102.856 263.902C102.362 264.927 101.715 265.828 100.952 266.556C99.3047 268.198 97.39 269.378 95.3397 270.013C94.1335 270.391 92.8004 270.643 91.9814 271.832C90.7879 273.619 91.5878 276.328 92.6163 278.281C94.3811 281.683 96.8316 284.762 99.974 285.825C102.513 286.676 105.161 286.156 107.725 286.707C109.585 287.109 111.338 288.062 113.172 288.605C115.783 289.346 118.501 289.267 121.081 288.374C123.661 287.482 126.02 285.804 127.945 283.494C125.215 280.896 122.384 278.132 120.962 274.241C119.961 271.457 119.772 268.328 120.428 265.39C121.063 262.508 122.555 259.705 122.098 256.728C121.641 253.751 119.305 251.759 117.019 250.767C114.921 249.976 112.765 249.446 110.582 249.184C109.382 248.979 101.764 246.892 101.288 247.924C101.021 248.506 102.602 251.956 102.799 252.72C103.263 254.374 103.533 256.104 103.599 257.854Z" fill="#EE8E9E"/>
<path d="M113.204 264.752C121.738 264.752 128.656 256.171 128.656 245.585C128.656 234.999 121.738 226.418 113.204 226.418C104.67 226.418 97.7521 234.999 97.7521 245.585C97.7521 256.171 104.67 264.752 113.204 264.752Z" fill="#EE8E9E"/>
<path d="M105.04 277.265L115.521 279.455C118.097 280.105 120.72 280.432 123.349 280.431C124.784 280.254 126.23 280.254 127.666 280.431C128.656 280.636 129.602 281.1 130.592 281.258C131.817 281.447 133.062 281.156 134.287 281.352C136.56 281.715 138.432 283.668 140.159 285.534C142.184 287.723 144.362 290.259 144.52 293.606C144.549 293.986 144.505 294.369 144.394 294.724C144.195 295.126 143.928 295.469 143.613 295.732C141.708 297.693 140.61 300.614 139.239 303.197C137.827 305.862 136.068 308.217 134.033 310.166C133.576 309.804 132.706 310.757 132.903 311.387C133.1 312.017 133.601 312.45 133.766 313.088C134.141 314.561 132.674 315.647 132.065 317.025C131.456 318.404 131.767 320.081 131.703 321.648C131.627 323.373 131.068 325.018 130.897 326.727C130.472 330.72 132.065 334.925 130.941 338.697C132.319 338.484 133.563 339.957 133.95 341.603C134.338 343.249 134.09 345.021 133.83 346.706C134.715 347.363 135.438 348.307 135.921 349.437C136.404 350.567 136.63 351.839 136.572 353.116C136.518 353.267 136.492 353.43 136.496 353.595C136.5 353.76 136.534 353.922 136.595 354.068C136.656 354.215 136.742 354.343 136.848 354.442C136.954 354.542 137.077 354.611 137.207 354.644C138.163 355.138 138.979 355.972 139.552 357.042C140.125 358.112 140.429 359.368 140.426 360.652C140.383 361.081 140.416 361.516 140.521 361.928C140.706 362.322 140.965 362.654 141.276 362.896C141.981 363.599 142.548 364.489 142.937 365.5C143.326 366.512 143.527 367.619 143.524 368.74C143.524 370.259 143.016 371.89 141.93 372.575C139.708 373.976 137.328 374.52 134.89 375.173C132.644 375.832 130.37 376.334 128.078 376.677C125.967 376.892 123.848 376.973 121.73 376.922L107.713 376.851C103.77 376.851 99.828 376.851 95.8984 376.481C92.229 376.173 88.4771 375.606 84.922 376.803C84.4777 375.866 85.1887 374.787 85.6267 373.85C86.1289 372.573 86.4018 371.176 86.4266 369.755L87.3154 358.172C87.4845 356.579 87.5079 354.967 87.3852 353.368C87.1948 351.659 86.6742 350.045 86.4076 348.352C85.8997 345.107 86.3631 341.752 86.2425 338.445C86.0612 335.515 85.6509 332.614 85.0173 329.783L82.2367 315.608C81.7923 313.332 81.5574 310.686 80.8718 308.521C78.7345 301.696 76.4935 294.944 74.1489 288.267C74.064 287.974 74.0314 287.661 74.0534 287.352C74.0753 287.042 74.1512 286.741 74.2758 286.471L76.593 281.321C77.2129 279.857 77.9218 278.454 78.7133 277.124C80.6703 274.054 83.4417 271.944 86.5345 271.17C89.6316 270.419 92.8427 271.008 95.6317 272.84C96.711 273.556 97.714 274.415 98.8059 275.123C100.679 276.226 102.964 277.439 105.04 277.265Z" fill="#6C63FF"/>
<path d="M142.229 289.889L145.879 295.929C146.214 296.442 146.5 297.002 146.73 297.598C147.276 299.173 146.977 301.032 147.269 302.725C147.497 303.809 147.859 304.842 148.342 305.788C149.714 308.781 151.266 311.643 152.983 314.348C153.776 315.722 154.753 316.918 155.871 317.884C156.431 318.364 157.068 318.689 157.739 318.837C158.409 318.985 159.097 318.953 159.757 318.742C159.205 319.009 158.753 319.519 158.487 320.175C157.097 323.593 156.995 327.641 157.585 331.389C157.752 332.676 158.095 333.917 158.601 335.059C159.108 336.211 159.933 337.097 160.925 337.555C160.862 338.126 160.707 338.676 160.467 339.169C160.228 339.663 159.91 340.091 159.532 340.427C159.155 340.764 158.726 341.001 158.273 341.124C157.819 341.248 157.35 341.255 156.893 341.146C156.175 340.879 155.498 340.461 154.894 339.91L149.028 335.185C148.049 334.458 147.134 333.605 146.298 332.641C145.2 331.287 144.438 329.57 143.371 328.176C141.556 325.814 138.889 324.365 137.607 321.498C136.801 319.703 136.661 317.561 136.166 315.624C135.842 314.34 135.366 313.127 135.055 311.836C134.09 307.851 134.788 303.481 136.255 299.74C137.721 296 140.058 293.07 142.229 289.889Z" fill="#6C63FF"/>
<path d="M128.472 234.655C127.042 231.903 125.197 229.521 123.038 227.638C120.149 224.969 116.829 222.748 113.229 222.496C111.724 222.401 110.22 222.704 108.817 223.386C108.747 217.976 107.668 214.369 104.938 214.912C99.8598 215.928 94.2097 218.354 92.2417 224.26C90.7752 228.725 91.9116 233.749 92.2862 238.545C92.4282 239.811 92.3917 241.098 92.1782 242.348C91.7592 244.372 90.6038 246.01 89.4865 247.577C87.9344 249.567 86.6312 251.834 85.6204 254.302C84.7062 256.822 84.4142 259.815 85.3601 262.335C85.6819 262.982 85.8976 263.702 85.9949 264.453C86.0584 266.091 84.6745 267.131 83.6587 268.178C79.8497 272.115 80.0084 279.203 79.9767 285.369C79.9182 297.941 77.6681 310.35 73.3807 321.743C74.9875 322.752 76.8023 323.137 78.5882 322.848C80.3742 322.558 82.0483 321.608 83.3921 320.12C82.8642 322.92 82.1025 325.644 81.1194 328.247C84.3444 330.184 88.2359 327.003 89.8547 323.034C91.4736 319.065 91.664 314.45 92.8131 310.237C93.9621 306.024 95.9873 302.363 96.8824 298.118C97.168 296.716 97.3458 295.22 98.0378 294.055C98.6208 293.211 99.3062 292.486 100.069 291.905C103.396 288.944 98.4949 266.508 99.7963 261.689C101.701 262.217 105.288 250.664 107.313 238.852C108.725 239.456 110.232 239.642 111.712 239.395C112.227 239.257 112.755 239.212 113.28 239.261C113.768 239.386 114.233 239.621 114.651 239.954C116.15 241.095 117.716 242.093 119.337 242.939C122.688 244.514 126.371 244.286 129.945 244.065C130.429 240.81 129.903 237.448 128.472 234.655Z" fill="#303D5C"/>
<g opacity="0.1">
<path opacity="0.1" d="M75.1964 321.743C79.4968 310.365 81.758 297.966 81.8241 285.4C81.8558 279.258 81.6907 272.123 85.5061 268.209C86.5218 267.162 87.9058 266.123 87.8423 264.485C87.7424 263.734 87.5269 263.015 87.2075 262.366C86.2616 259.862 86.5726 256.854 87.4614 254.334C88.4724 251.863 89.7779 249.596 91.3339 247.609C92.4449 246.034 93.6066 244.404 94.0193 242.38C94.2321 241.129 94.2707 239.843 94.1335 238.576C93.7526 233.781 92.6226 228.756 94.0891 224.291C95.9936 218.574 101.32 216.125 106.272 215.054C105.841 214.884 105.383 214.846 104.938 214.944C99.8598 215.96 94.2097 218.385 92.2417 224.291C90.7753 228.756 91.9116 233.781 92.2862 238.576C92.4282 239.842 92.3917 241.129 92.1782 242.38C91.7592 244.404 90.6038 246.042 89.4865 247.609C87.9344 249.598 86.6312 251.865 85.6204 254.334C84.7062 256.854 84.4142 259.846 85.3601 262.366C85.6819 263.014 85.8976 263.734 85.9949 264.485C86.0584 266.123 84.6745 267.162 83.6587 268.209C79.8497 272.147 80.0084 279.234 79.9767 285.4C79.9145 297.962 77.6645 310.359 73.3807 321.743C74.8911 322.711 76.5974 323.108 78.288 322.884C77.2076 322.756 76.1576 322.368 75.1964 321.743Z" fill="black"/>
<path opacity="0.1" d="M82.935 328.216C83.9116 325.611 84.6669 322.887 85.1887 320.089C84.5368 320.828 83.7957 321.437 82.9921 321.892C82.4968 324.053 81.8599 326.16 81.0876 328.192C82.0162 328.74 83.0616 328.905 84.0714 328.665C83.6789 328.575 83.297 328.424 82.935 328.216Z" fill="black"/>
<path opacity="0.1" d="M110.633 223.386C111.577 222.93 112.569 222.643 113.579 222.535H113.229C112.355 222.479 111.478 222.561 110.62 222.779C110.627 222.953 110.633 223.165 110.633 223.386Z" fill="black"/>
<path opacity="0.1" d="M121.152 242.915C119.534 242.069 117.97 241.071 116.473 239.931C116.052 239.597 115.585 239.362 115.096 239.238C114.616 239.184 114.132 239.221 113.661 239.348C114.005 239.504 114.337 239.699 114.651 239.931C116.15 241.071 117.716 242.069 119.337 242.915C121.86 243.948 124.518 244.375 127.17 244.175C125.122 244.174 123.088 243.749 121.152 242.915Z" fill="black"/>
<path opacity="0.1" d="M109.128 238.828C109.128 239.002 109.071 239.175 109.039 239.348C109.8 239.488 110.572 239.515 111.338 239.427C110.586 239.33 109.845 239.129 109.128 238.828Z" fill="black"/>
</g>
<path d="M76.9676 327.72C77.0559 328.734 76.9653 329.76 76.7023 330.727C76.4392 331.694 76.0098 332.578 75.4439 333.319C74.8004 334.089 74.0766 334.748 73.2918 335.279C72.5347 335.923 71.6637 336.331 70.7525 336.469C69.5244 336.419 68.3575 335.791 67.4894 334.712C64.7977 331.783 63.4519 327.444 62.2076 323.278C60.5634 317.766 58.9255 312.198 58.2208 306.379C57.4654 300.142 57.7891 293.684 56.3481 287.629C57.6177 284.479 58.443 280.967 59.8968 277.911C60.8194 276.09 61.6361 274.19 62.3409 272.226C63.6909 268.042 63.8432 263.412 62.7726 259.106C63.0272 258.9 63.3279 258.8 63.6314 258.82C63.9349 258.84 64.2255 258.978 64.4613 259.216C64.9227 259.708 65.2728 260.34 65.477 261.051C66.3153 263.48 66.6639 266.127 66.4927 268.761C66.3841 269.394 66.4442 270.055 66.6642 270.643C66.8609 270.944 67.1143 271.181 67.4022 271.332C67.69 271.483 68.0034 271.544 68.3147 271.509C69.6091 271.429 70.8896 271.141 72.1237 270.651C75.9588 269.437 79.9309 269.029 83.8746 269.446C84.6692 269.475 85.45 269.711 86.1663 270.139C86.5204 270.358 86.8184 270.695 87.027 271.112C87.2355 271.529 87.3463 272.01 87.3471 272.501L77.9516 274.21C77.2443 274.259 76.5614 274.548 75.9772 275.045C75.6962 275.308 75.5104 275.698 75.4605 276.13C75.4105 276.562 75.5004 277.002 75.7106 277.352C75.9091 277.553 76.1215 277.733 76.3454 277.888C76.5863 278.114 76.7804 278.408 76.9115 278.745C77.0427 279.083 77.1072 279.455 77.0998 279.829C77.0923 280.204 77.0131 280.571 76.8687 280.9C76.7243 281.229 76.5188 281.511 76.2692 281.723C76.0328 281.858 75.8178 282.045 75.6344 282.274C75.2535 282.912 75.7614 283.754 75.9264 284.526C75.9976 285.095 75.9277 285.678 75.7259 286.197C75.5241 286.716 75.2 287.147 74.7964 287.432C73.9816 287.986 73.0938 288.357 72.1745 288.526C70.3296 289.054 68.5324 289.811 66.8102 290.787C66.2495 291.035 65.7625 291.488 65.4135 292.086C64.9501 293.062 65.2548 294.291 65.5722 295.354L68.0227 303.528C68.4036 304.812 68.7909 306.095 69.2924 307.332C69.9272 308.907 70.6827 310.434 71.3239 312.057C71.965 313.679 72.384 315.088 72.8538 316.632C74.079 320.798 76.5486 323.318 76.9676 327.72Z" fill="#EE8E9E"/>
<path d="M191.035 274.69H161.75V309.859H191.035V274.69Z" fill="url(#paint12_linear)"/>
<path d="M190.533 275.297H162.258V309.253H190.533V275.297Z" fill="#7CFCFF"/>
<path d="M185.632 272.619C185.11 273.101 184.732 273.786 184.56 274.564C184.52 274.725 184.522 274.897 184.567 275.056C184.611 275.214 184.695 275.351 184.807 275.446C184.948 275.502 185.098 275.502 185.239 275.446C185.942 275.292 186.599 274.909 187.143 274.336C186.927 274.478 186.736 274.671 186.578 274.903C186.501 275.02 186.453 275.163 186.439 275.314C186.426 275.465 186.447 275.618 186.502 275.753C186.58 275.871 186.677 275.967 186.786 276.036C186.895 276.105 187.015 276.146 187.137 276.155C188.043 276.359 188.974 276.305 189.86 275.998C189.447 276.188 189.065 276.468 188.73 276.824C188.564 277.006 188.432 277.23 188.343 277.482C188.254 277.734 188.211 278.007 188.216 278.281C188.217 278.385 188.235 278.486 188.27 278.58C188.305 278.674 188.356 278.757 188.419 278.825C188.512 278.897 188.616 278.943 188.724 278.959C189.564 279.142 190.423 279.142 191.263 278.959C191.48 278.948 191.691 278.87 191.877 278.733C192.064 278.595 192.219 278.402 192.33 278.171C192.373 277.91 192.373 277.641 192.331 277.38C192.288 277.119 192.204 276.871 192.082 276.651C191.632 275.449 191.415 274.133 191.448 272.808C191.475 272.541 191.444 272.269 191.359 272.021C191.219 271.78 191.021 271.601 190.794 271.509C189.899 271.021 188.68 270.343 187.683 270.721C186.906 271.18 186.209 271.825 185.632 272.619Z" fill="#EE8E9E"/>
</g>
<defs>
<linearGradient id="paint0_linear" x1="267.812" y1="260.248" x2="267.812" y2="225.079" gradientUnits="userSpaceOnUse">
<stop stop-color="#808080" stop-opacity="0.25"/>
<stop offset="0.54" stop-color="#808080" stop-opacity="0.12"/>
<stop offset="1" stop-color="#808080" stop-opacity="0.1"/>
</linearGradient>
<linearGradient id="paint1_linear" x1="15450.9" y1="11499.7" x2="15450.9" y2="9929.05" gradientUnits="userSpaceOnUse">
<stop stop-color="#808080" stop-opacity="0.25"/>
<stop offset="0.54" stop-color="#808080" stop-opacity="0.12"/>
<stop offset="1" stop-color="#808080" stop-opacity="0.1"/>
</linearGradient>
<linearGradient id="paint2_linear" x1="20926.3" y1="16965.1" x2="20926.3" y2="15394.4" gradientUnits="userSpaceOnUse">
<stop stop-color="#808080" stop-opacity="0.25"/>
<stop offset="0.54" stop-color="#808080" stop-opacity="0.12"/>
<stop offset="1" stop-color="#808080" stop-opacity="0.1"/>
</linearGradient>
<linearGradient id="paint3_linear" x1="8770.71" y1="8985.97" x2="8770.71" y2="7415.32" gradientUnits="userSpaceOnUse">
<stop stop-color="#808080" stop-opacity="0.25"/>
<stop offset="0.54" stop-color="#808080" stop-opacity="0.12"/>
<stop offset="1" stop-color="#808080" stop-opacity="0.1"/>
</linearGradient>
<linearGradient id="paint4_linear" x1="11513.1" y1="11287.2" x2="11513.1" y2="9716.54" gradientUnits="userSpaceOnUse">
<stop stop-color="#808080" stop-opacity="0.25"/>
<stop offset="0.54" stop-color="#808080" stop-opacity="0.12"/>
<stop offset="1" stop-color="#808080" stop-opacity="0.1"/>
</linearGradient>
<linearGradient id="paint5_linear" x1="22540.8" y1="16953.6" x2="22540.8" y2="15382.9" gradientUnits="userSpaceOnUse">
<stop stop-color="#808080" stop-opacity="0.25"/>
<stop offset="0.54" stop-color="#808080" stop-opacity="0.12"/>
<stop offset="1" stop-color="#808080" stop-opacity="0.1"/>
</linearGradient>
<linearGradient id="paint6_linear" x1="24964.2" y1="9007.18" x2="24964.2" y2="7436.53" gradientUnits="userSpaceOnUse">
<stop stop-color="#808080" stop-opacity="0.25"/>
<stop offset="0.54" stop-color="#808080" stop-opacity="0.12"/>
<stop offset="1" stop-color="#808080" stop-opacity="0.1"/>
</linearGradient>
<linearGradient id="paint7_linear" x1="24814.6" y1="14113" x2="24814.6" y2="12542.4" gradientUnits="userSpaceOnUse">
<stop stop-color="#808080" stop-opacity="0.25"/>
<stop offset="0.54" stop-color="#808080" stop-opacity="0.12"/>
<stop offset="1" stop-color="#808080" stop-opacity="0.1"/>
</linearGradient>
<linearGradient id="paint8_linear" x1="25861.7" y1="14472.6" x2="25861.7" y2="12901.9" gradientUnits="userSpaceOnUse">
<stop stop-color="#808080" stop-opacity="0.25"/>
<stop offset="0.54" stop-color="#808080" stop-opacity="0.12"/>
<stop offset="1" stop-color="#808080" stop-opacity="0.1"/>
</linearGradient>
<linearGradient id="paint9_linear" x1="21446.5" y1="16393" x2="21446.5" y2="14822.3" gradientUnits="userSpaceOnUse">
<stop stop-color="#808080" stop-opacity="0.25"/>
<stop offset="0.54" stop-color="#808080" stop-opacity="0.12"/>
<stop offset="1" stop-color="#808080" stop-opacity="0.1"/>
</linearGradient>
<linearGradient id="paint10_linear" x1="21596.2" y1="11538.9" x2="21596.2" y2="9968.23" gradientUnits="userSpaceOnUse">
<stop stop-color="#808080" stop-opacity="0.25"/>
<stop offset="0.54" stop-color="#808080" stop-opacity="0.12"/>
<stop offset="1" stop-color="#808080" stop-opacity="0.1"/>
</linearGradient>
<linearGradient id="paint11_linear" x1="17334.2" y1="203996" x2="48795.8" y2="203996" gradientUnits="userSpaceOnUse">
<stop stop-color="#D83434" stop-opacity="0.25"/>
<stop offset="0.54" stop-color="#808080" stop-opacity="0.12"/>
<stop offset="1" stop-color="#808080" stop-opacity="0.1"/>
</linearGradient>
<linearGradient id="paint12_linear" x1="8298.88" y1="14113" x2="8298.88" y2="12542.4" gradientUnits="userSpaceOnUse">
<stop stop-color="#808080" stop-opacity="0.25"/>
<stop offset="0.54" stop-color="#808080" stop-opacity="0.12"/>
<stop offset="1" stop-color="#808080" stop-opacity="0.1"/>
</linearGradient>
<clipPath id="clip0">
<rect width="718.882" height="604.103" fill="white"/>
</clipPath>
</defs>
</svg>
